HIERARCHY
ROOT pelvis
{
	OFFSET 0.000000 0.000000 0.000000
	CHANNELS 6 Xposition Yposition Zposition Zrotation Xrotation Yrotation
	JOINT lfemur
	{
		OFFSET 11.446000 0.000000 0.000000
		CHANNELS 3 Zrotation Xrotation Yrotation
		JOINT ltibia
		{
			OFFSET 0.000000 -42.030400 0.000000
			CHANNELS 3 Zrotation Xrotation Yrotation
			JOINT lfoot
			{
				OFFSET 0.000000 -39.930200 0.000000
				CHANNELS 3 Zrotation Xrotation Yrotation
				JOINT ltoes
				{
					OFFSET 0.000000 0.000000 11.775800
					CHANNELS 3 Zrotation Xrotation Yrotation
					End Site
					{
					    OFFSET 0.000000 0.000000 5.000000
					}
				}
			}
		}
	}
	JOINT rfemur
	{
		OFFSET -11.446000 0.000000 0.000000
		CHANNELS 3 Zrotation Xrotation Yrotation
		JOINT rtibia
		{
			OFFSET 0.000000 -42.030400 0.000000
			CHANNELS 3 Zrotation Xrotation Yrotation
			JOINT rfoot
			{
				OFFSET 0.000000 -39.930200 0.000000
				CHANNELS 3 Zrotation Xrotation Yrotation
				JOINT rtoes
				{
					OFFSET 0.000000 0.000000 11.775800
					CHANNELS 3 Zrotation Xrotation Yrotation
					End Site
					{
					    OFFSET 0.000000 0.000000 5.000000
					}
				}
			}
		}
	}
	JOINT thorax
	{
		OFFSET 0.000000 11.255600 -5.000000
		CHANNELS 3 Zrotation Xrotation Yrotation
		JOINT head
		{
			OFFSET 0.000000 43.799300 0.000000
			CHANNELS 3 Zrotation Xrotation Yrotation
			End Site
			{
			    OFFSET 0.000000 5.000000 0.000000
			}
		}
		JOINT lclavicle
		{
			OFFSET 0.000000 39.863000 0.000000
			CHANNELS 3 Zrotation Xrotation Yrotation
			JOINT lhumerus
			{
				OFFSET 17.380600 4.958300 0.000000
				CHANNELS 3 Zrotation Xrotation Yrotation
				JOINT lradius
				{
					OFFSET 0.000000 -27.561300 0.000000
					CHANNELS 3 Zrotation Xrotation Yrotation
					JOINT lhand
					{
						OFFSET 0.000000 -26.933000 0.000000
						CHANNELS 3 Zrotation Xrotation Yrotation
						End Site
						{
						    OFFSET 0.000000 -5.000000 0.000000
						}
					}
				}
			}
		}
		JOINT rclavicle
		{
			OFFSET 0.000000 39.863000 0.000000
			CHANNELS 3 Zrotation Xrotation Yrotation
			JOINT rhumerus
			{
				OFFSET -17.380600 4.958300 0.000000
				CHANNELS 3 Zrotation Xrotation Yrotation
				JOINT rradius
				{
					OFFSET 0.000000 -27.561300 0.000000
					CHANNELS 3 Zrotation Xrotation Yrotation
					JOINT rhand
					{
						OFFSET 0.000000 -26.933000 0.000000
						CHANNELS 3 Zrotation Xrotation Yrotation
						End Site
						{
						    OFFSET 0.000000 -5.000000 0.000000
						}
					}
				}
			}
		}
	}
}
MOTION
Frames:	20
Frame Time:	0.0333333
50.179900 64.571600 1.753300 21.317481 -0.620067 -98.878567 -6.652770 -43.680880 -12.117747 -180.000037 76.112880 -180.000037 0.000000 5.781158 -14.044976 -0.000000 -1.711766 -0.000000 37.156234 -76.444042 25.372131 -0.000000 79.911953 -0.000000 0.000000 -7.826232 0.023375 -0.000000 -29.509678 -0.000000 -11.066399 41.920870 -1.297374 -2.086376 18.127050 22.728492 -14.968456 0.000000 -2.237447 39.354089 -26.978731 11.868735 -0.000001 -18.138498 -44.084344 12.231166 -3.928376 -0.000000 9.975861 -0.000000 17.312274 -38.204649 -13.348244 -10.804896 0.000002 -23.022919 37.716198 3.196073 -4.525149 0.000000 
50.655500 67.926600 1.836100 21.066882 -1.031056 -98.249289 -7.346045 -44.059912 -10.688963 180.000037 79.861418 -180.000037 0.000000 5.429303 -9.725496 -0.000000 -1.683031 -0.000000 25.583236 -73.298303 14.044924 -0.000000 72.868093 -0.000000 -0.000000 -4.668613 1.085495 -0.000000 -29.514746 -0.000000 -11.184492 41.314604 -1.156907 -0.560329 19.504890 21.393751 -14.071999 0.000000 -2.119646 38.644957 -25.398315 9.464504 -0.000000 -18.284300 -44.887334 12.358380 -3.630803 0.000000 10.677978 -0.000000 18.014914 -38.961884 -11.396664 -11.594990 -0.000000 -23.303123 38.001874 2.742688 -4.371910 0.000000 
51.588300 70.671200 2.443000 23.733431 -2.215208 -96.060713 -11.592154 -48.336498 -12.804095 180.000037 82.928624 -180.000037 0.000000 3.783851 -5.235064 0.000000 -1.615587 -0.000000 15.853601 -74.023974 5.035503 -0.000000 67.010303 0.000000 0.000000 -1.863457 1.946588 -0.000000 -29.518376 -0.000000 -9.146500 38.754685 -2.079359 1.544840 20.819782 18.593609 -12.855869 -0.000000 -4.365405 37.517431 -25.010717 7.506337 -0.000001 -18.034944 -45.545973 13.390404 -4.089573 0.000000 9.553973 0.000000 16.780392 -39.408627 -11.562495 -12.866308 -0.000000 -23.434659 36.668512 2.945003 -4.439090 0.000000 
52.953200 73.738000 1.953000 22.854117 1.217095 -94.257491 -8.575614 -49.950092 -12.174304 -180.000037 85.759786 180.000037 0.000000 2.823672 -3.507338 -0.000000 -1.574282 0.000000 13.974856 -68.100464 0.622847 -0.000000 57.165577 -0.000000 -0.000000 2.579872 1.620539 0.000000 -29.524957 0.000000 -5.531298 38.152524 -1.778481 4.686037 22.594868 16.913512 -11.056096 -0.000000 -4.618421 36.139827 -24.201857 5.999357 0.000001 -18.094146 -47.768504 13.034165 -4.298763 0.000000 11.312895 0.000000 15.765291 -40.482772 -10.654629 -11.479947 0.000000 -24.046689 34.957536 2.858154 -4.410825 0.000000 
53.664200 76.206000 2.305600 21.703023 0.697822 -93.575623 -9.803937 -49.610494 -11.111765 0.000000 89.184333 0.000000 -0.000000 1.583336 -1.823552 -0.000000 -1.535939 -0.000000 10.430529 -63.487107 -2.277156 -0.000000 49.798667 -0.000000 0.000000 5.605596 1.813784 -0.000000 -29.528413 -0.000000 -5.764052 36.928463 -1.273788 6.118670 24.488804 15.870419 -11.123262 0.000000 -4.683797 36.797068 -23.261610 4.099599 0.000001 -18.713983 -47.741296 12.489349 -4.699575 -0.000000 12.179862 0.000000 16.083577 -40.891111 -9.290416 -10.977779 0.000001 -24.944320 33.687798 2.794017 -4.389719 -0.000000 
54.479800 78.133900 2.726600 20.621533 0.159978 -93.209610 -10.718031 -48.873323 -9.817633 -0.000000 83.715194 -0.000000 -0.000000 0.215660 0.268904 -0.000000 -1.508267 -0.000000 8.710168 -59.146756 -2.960690 -0.000000 42.734296 0.000000 0.000000 8.576971 1.900279 0.000000 -29.529619 -0.000000 -6.034292 35.535147 -0.403890 7.414311 25.809734 14.698692 -10.668568 0.000000 -4.726829 36.619176 -23.044452 3.567771 0.000001 -18.827511 -48.159465 12.932050 -4.297205 0.000000 12.262850 -0.000000 15.325417 -40.408103 -9.503976 -9.891065 0.000001 -25.386510 32.414692 2.125581 -4.165504 -0.000000 
55.259000 79.543700 3.143300 19.243859 -0.035385 -92.889166 -10.718007 -47.201821 -8.610526 -0.000000 77.994486 0.000000 0.000000 -1.002843 1.977699 -0.000000 -1.435591 -0.000000 7.806645 -55.157030 -2.711437 0.000000 36.835720 -0.000000 -0.000000 11.623498 1.526439 -0.000000 -29.530145 -0.000000 -5.978401 34.070875 0.082400 8.056663 26.998604 13.754646 -10.610036 -0.000000 -4.841878 37.069118 -22.622074 3.685641 0.000001 -18.995440 -48.013416 12.448353 -4.384337 -0.000000 12.394787 -0.000000 15.287739 -39.578827 -9.308976 -9.459433 0.000001 -26.114572 31.894234 1.810315 -4.059975 -0.000000 
56.070800 80.422400 3.627200 17.684873 -0.073164 -92.673171 -10.463802 -44.677087 -8.073327 -0.000000 71.985988 -0.000000 -0.000000 -2.325007 3.867933 0.000000 -1.374173 -0.000000 7.224022 -51.564021 -2.247695 -0.000000 31.887937 -0.000000 0.000000 14.235392 0.855758 -0.000000 -29.530503 -0.000000 -5.819995 32.782885 0.172531 8.236595 28.148692 13.204720 -10.477735 -0.000000 -4.775839 37.646246 -22.385011 3.860752 0.000000 -19.297148 -46.938332 12.279903 -4.134354 -0.000000 12.471896 -0.000000 15.505593 -38.566512 -9.347694 -8.671894 0.000001 -26.913839 31.658040 1.864259 -4.078187 -0.000000 
56.928100 80.760200 4.136300 16.166513 0.218842 -92.360715 -10.105950 -41.787313 -9.023822 0.000000 66.292136 -0.000000 -0.000000 -3.407015 4.953838 -0.000000 -1.357996 -0.000000 6.532104 -48.975164 -3.055202 -0.000000 28.711130 -0.000000 -0.000000 16.006579 0.880807 -0.000000 -29.530250 -0.000000 -5.302487 31.505992 -0.035615 8.310446 29.417565 13.034255 -10.370255 0.000000 -4.804355 38.156556 -22.536813 4.708377 -0.000001 -19.147845 -47.167901 12.571209 -3.855707 0.000000 12.570966 -0.000000 15.615087 -37.554299 -9.774203 -7.656178 0.000000 -27.711291 30.740385 1.716919 -4.029502 0.000000 
57.829800 80.661000 4.749400 14.391382 0.321760 -92.592268 -9.761143 -38.352884 -10.016444 0.000000 61.861275 -0.000000 0.000000 -5.969856 4.423982 -0.000000 -1.359688 0.000000 5.925478 -47.177888 -4.115580 0.000000 27.257223 -0.000000 -0.000000 17.150001 1.379856 -0.000000 -29.531121 -0.000000 -5.234678 30.503785 0.206956 8.119952 30.414277 13.125081 -10.525962 -0.000000 -4.856913 38.819172 -22.856009 5.414756 0.000001 -19.316802 -46.489606 11.820474 -3.898967 -0.000000 12.679572 0.000000 15.277766 -36.725011 -10.580972 -6.022438 0.000001 -28.753816 29.780021 1.938228 -4.106652 -0.000000 
58.885400 80.267900 5.380200 12.469750 0.423927 -93.371636 -9.306611 -35.585194 -9.756973 -0.000000 60.511787 -0.000000 -0.000000 -8.819934 2.975064 0.000000 -1.375999 -0.000000 5.963028 -45.878312 -3.917219 0.000000 26.749244 -0.000000 0.000000 18.091642 1.634070 -0.000000 -29.532207 -0.000000 -5.531833 30.039491 0.604377 7.783453 31.004430 13.604606 -10.571238 0.000000 -4.810864 39.490661 -23.298714 5.924537 0.000000 -19.825398 -45.889943 11.670406 -3.966443 -0.000000 12.575787 0.000000 15.144420 -35.736518 -11.537761 -4.130726 0.000001 -30.263571 29.407711 1.814521 -4.064609 -0.000000 
60.170300 79.810200 6.076700 10.936115 0.220935 -94.407923 -9.381996 -33.860294 -9.064068 -0.000000 58.617222 -0.000000 0.000000 -11.844972 3.428009 0.000000 -1.357223 -0.000000 5.844854 -45.170224 -3.753277 -0.000000 26.161587 -0.000000 -0.000000 19.398008 2.313541 -0.000000 -29.532761 -0.000000 -6.438309 29.677731 0.992459 7.525053 31.095084 14.231601 -10.817123 -0.000000 -4.247989 40.313597 -24.542749 6.199669 0.000000 -20.226571 -45.859285 12.284458 -3.539410 0.000000 12.413963 -0.000000 14.985143 -34.751070 -12.914874 -1.864839 -0.000000 -31.728842 28.285505 1.351619 -3.907811 -0.000000 
61.740600 79.553400 6.747600 9.832424 0.056388 -95.253501 -9.458520 -33.353336 -8.013939 0.000000 57.652000 -0.000000 -0.000000 -13.156852 3.825604 0.000000 -1.331564 0.000000 5.752933 -44.191211 -3.647706 0.000000 23.962928 -0.000000 0.000000 21.600211 3.059250 -0.000000 -29.534588 -0.000000 -7.354505 29.769907 1.144782 7.309309 30.598389 14.974750 -10.815678 -0.000000 -3.729936 40.672829 -26.367067 7.437441 -0.000001 -20.641702 -46.326600 12.887345 -3.807591 -0.000000 12.181302 0.000000 14.523688 -33.758231 -14.802649 0.397978 -0.000001 -33.101670 27.861827 0.886453 -3.753285 -0.000000 
63.413300 79.667900 7.335100 9.269460 -0.128743 -95.855079 -9.673878 -34.040988 -7.914912 -0.000000 57.451055 0.000000 -0.000000 -11.675231 3.448877 0.000000 -1.355600 0.000000 5.545477 -42.868791 -3.687708 -0.000000 20.541213 0.000000 -0.000000 21.861004 3.410767 0.000000 -29.554607 0.000000 -8.461166 29.811060 1.247516 7.678871 29.950906 15.436696 -10.651792 0.000000 -3.584875 40.546032 -28.103789 8.943376 0.000001 -20.976385 -46.217195 14.251713 -3.246173 -0.000000 12.165630 -0.000000 14.014559 -32.892508 -16.632734 2.710189 0.000000 -34.101220 27.376105 0.779865 -3.718467 0.000000 
65.007200 80.100800 7.784300 8.741894 0.239586 -96.055766 -8.901331 -34.125629 -6.862870 0.000000 56.090980 0.000000 0.000000 -10.328306 2.836476 0.000000 -1.364258 0.000000 5.339791 -41.273085 -5.003477 0.000000 17.723807 0.000000 -0.000000 18.871313 2.162169 -0.000000 -29.565709 -0.000000 -8.980237 29.875638 0.976941 7.965665 29.558233 15.916846 -10.503614 -0.000000 -3.119884 39.991487 -29.431214 8.557816 0.000000 -21.456873 -45.500843 15.050854 -3.169980 -0.000000 12.257165 -0.000000 13.904114 -31.878071 -17.508026 4.534788 0.000000 -34.853572 27.634518 0.787316 -3.720202 0.000000 
66.535700 80.895300 8.182600 8.409708 0.506120 -95.810949 -8.230123 -33.726880 -6.032157 -0.000000 53.563506 0.000000 0.000000 -8.577798 1.831124 -0.000000 -1.361941 0.000000 4.392346 -39.777334 -6.519792 -0.000000 15.913412 -0.000000 -0.000000 16.818489 -1.462560 -0.000000 -29.560061 -0.000000 -9.289258 29.637054 0.734457 8.513452 29.416309 15.661264 -10.569202 0.000000 -3.494188 39.140644 -29.428914 7.329632 -0.000000 -22.184995 -44.046158 15.276921 -3.609057 -0.000000 12.825069 0.000000 13.553412 -31.124043 -17.608611 5.459281 0.000002 -35.269581 28.835874 1.465458 -3.949029 0.000000 
67.946800 82.020700 8.517900 8.566453 0.985794 -95.067647 -7.656996 -33.188820 -6.100392 -0.000000 50.042925 -0.000000 0.000000 -6.345021 0.943830 -0.000000 -1.393381 -0.000000 3.090075 -38.690640 -6.690187 0.000000 16.103549 -0.000000 -0.000000 15.460381 -3.903855 0.000000 -29.554839 0.000000 -8.984119 28.910024 0.225146 9.180839 29.428639 15.131814 -10.391190 -0.000000 -3.688012 37.303007 -29.151491 4.827549 0.000001 -22.718958 -44.484912 14.601902 -3.570591 -0.000000 13.429492 0.000000 12.951591 -30.596324 -17.267421 6.643492 0.000002 -35.418713 28.718646 1.748063 -4.046643 0.000000 
69.189000 83.448200 8.805900 8.621959 1.520476 -94.146743 -7.193930 -31.644473 -6.896031 0.000000 45.166657 -0.000000 -0.000000 -3.769356 -0.063496 0.000000 -1.427812 -0.000000 1.683256 -37.229414 -6.684023 0.000000 17.372223 -0.000000 0.000000 14.143861 -4.431389 -0.000000 -29.551479 -0.000000 -8.393822 28.196631 -0.091650 9.932737 29.488315 14.044321 -10.363151 -0.000000 -4.020401 35.172664 -28.362774 2.312364 0.000000 -23.149901 -45.002314 13.769462 -4.033156 0.000000 14.008216 -0.000000 12.650655 -30.536212 -15.862585 7.089289 0.000001 -35.419070 29.002406 1.636054 -4.009001 -0.000000 
70.332200 84.902800 9.018000 8.987345 2.133826 -93.732342 -6.453298 -29.815776 -7.842836 0.000000 39.625583 -0.000000 -0.000000 -2.018148 -0.434481 -0.000000 -1.504541 -0.000000 0.970206 -35.806984 -5.876121 -0.000000 19.150762 0.000000 -0.000000 12.907526 -3.854132 -0.000000 -29.549218 -0.000000 -7.861606 26.991987 -0.206470 10.365781 29.709563 13.649393 -10.575651 0.000000 -3.630027 33.076391 -27.419522 -0.277332 -0.000000 -23.143980 -45.962549 13.528469 -4.413215 0.000000 14.571934 0.000000 12.412952 -30.690509 -14.484878 7.662914 0.000001 -34.836942 29.119044 1.830353 -4.074069 0.000000 
71.284400 86.219600 9.177000 9.231922 2.603860 -93.589185 -5.443716 -27.769320 -7.800728 -0.000000 33.991396 -0.000000 0.000000 0.202164 -1.136919 -0.000000 -1.541540 -0.000000 0.605955 -33.938481 -4.863088 0.000000 20.959751 0.000000 -0.000000 11.096430 -3.927621 -0.000000 -29.546715 0.000000 -7.725936 25.472887 -0.088579 11.071855 30.251956 13.069838 -10.703713 -0.000000 -3.637201 31.141795 -25.431139 -0.906153 -0.000000 -23.169848 -46.869476 12.444295 -4.949591 0.000000 15.054305 -0.000000 12.335921 -30.867307 -12.498468 7.787503 -0.000000 -34.298496 30.099674 2.797162 -4.400363 -0.000000 
